<svg width="20" height="20" viewBox="0 0 20 20" fill="none" xmlns="http://www.w3.org/2000/svg">
<path fill-rule="evenodd" clip-rule="evenodd" d="M16.965 14.61L15.792 13.437C15.206 12.851 14.256 12.851 13.671 13.437L12.749 14.359C12.543 14.565 12.231 14.634 11.965 14.517C10.629 13.932 9.30899 13.045 8.13199 11.868C6.95999 10.696 6.07599 9.38197 5.48999 8.05097C5.36799 7.77597 5.43899 7.45297 5.65199 7.23997L6.47799 6.41397C7.14899 5.74297 7.14899 4.79397 6.56299 4.20797L5.38999 3.03497C4.60899 2.25397 3.34299 2.25397 2.56199 3.03497L1.90999 3.68597C1.16899 4.42697 0.859994 5.49597 1.05999 6.55597C1.55399 9.16897 3.07199 12.03 5.52099 14.479C7.96999 16.928 10.831 18.446 13.444 18.94C14.504 19.14 15.573 18.831 16.314 18.09L16.965 17.439C17.746 16.658 17.746 15.392 16.965 14.61V14.61Z" fill="white" stroke="white" stroke-width="0.5" stroke-linecap="round" stroke-linejoin="round"/>
<path d="M11 4.99109C12.031 4.97709 13.067 5.35909 13.854 6.14609" stroke="white" stroke-width="1.5" stroke-linecap="round" stroke-linejoin="round"/>
<path d="M16.682 3.31787C15.113 1.74887 13.056 0.963867 11 0.963867" stroke="white" stroke-width="1.5" stroke-linecap="round" stroke-linejoin="round"/>
<path d="M15.009 9C15.023 7.969 14.641 6.933 13.854 6.146" stroke="white" stroke-width="1.5" stroke-linecap="round" stroke-linejoin="round"/>
<path d="M16.682 3.31787C18.251 4.88687 19.036 6.94387 19.036 8.99987" stroke="white" stroke-width="1.5" stroke-linecap="round" stroke-linejoin="round"/>
</svg>
