<svg width="181" height="41" viewBox="0 0 181 41" fill="none" xmlns="http://www.w3.org/2000/svg">
<path d="M28.0413 16.6452H31.1602L30.7961 20.0918H28.0413V30.0918H23.9029V20.0918H21.8398V16.6452H23.9029V14.57C23.9029 13.0975 24.2508 11.985 24.9466 11.2326C25.6424 10.4721 26.7872 10.0918 28.3811 10.0918H31.1359V13.5384H29.4126C29.0971 13.5384 28.8422 13.5667 28.6481 13.6233C28.462 13.6719 28.3244 13.7649 28.2354 13.9025C28.1545 14.04 28.1019 14.1816 28.0777 14.3272C28.0534 14.4648 28.0413 14.663 28.0413 14.9219V16.6452Z" fill="white"/>
<rect x="7" y="0.591797" width="39" height="39" rx="19.5" stroke="white"/>
<path fill-rule="evenodd" clip-rule="evenodd" d="M98.3252 13.5184C99.1819 13.7491 99.8574 14.4245 100.088 15.2812C100.516 16.8462 100.5 20.1082 100.5 20.1082C100.5 20.1082 100.5 23.3536 100.088 24.9187C99.8574 25.7753 99.182 26.4508 98.3252 26.6813C96.7602 27.0933 90.5 27.0933 90.5 27.0933C90.5 27.0933 84.2561 27.0933 82.6747 26.665C81.8179 26.4343 81.1425 25.7588 80.9118 24.9022C80.5 23.3536 80.5 20.0917 80.5 20.0917C80.5 20.0917 80.5 16.8462 80.9118 15.2812C81.1424 14.4246 81.8344 13.7326 82.6745 13.5021C84.2396 13.0901 90.4998 13.0901 90.4998 13.0901C90.4998 13.0901 96.7602 13.0901 98.3252 13.5184ZM93.7122 20.092L88.5063 23.0903V17.0936L93.7122 20.092Z" fill="white"/>
<rect x="71" y="0.591797" width="39" height="39" rx="19.5" stroke="white"/>
<path d="M161.008 14.3691C160.873 14.2993 160.742 14.2228 160.615 14.1399C160.244 13.8951 159.905 13.6067 159.604 13.2808C158.849 12.4179 158.568 11.5426 158.464 10.9297H158.468C158.382 10.4209 158.417 10.0918 158.423 10.0918H154.988V23.3736C154.988 23.552 154.988 23.7282 154.98 23.9024C154.98 23.924 154.978 23.944 154.977 23.9674C154.977 23.9769 154.977 23.9869 154.975 23.9969V24.0044C154.939 24.481 154.786 24.9413 154.53 25.345C154.274 25.7486 153.923 26.0832 153.508 26.3193C153.074 26.5657 152.585 26.6949 152.086 26.6943C150.486 26.6943 149.189 25.3894 149.189 23.7778C149.189 22.1662 150.486 20.8613 152.086 20.8613C152.389 20.861 152.69 20.9086 152.978 21.0025L152.983 17.5052C152.108 17.3922 151.22 17.4617 150.374 17.7093C149.528 17.9568 148.742 18.377 148.066 18.9434C147.474 19.4578 146.976 20.0716 146.595 20.7571C146.45 21.0071 145.903 22.0116 145.837 23.642C145.795 24.5673 146.073 25.526 146.206 25.9223V25.9306C146.289 26.1639 146.612 26.9601 147.138 27.6313C147.563 28.1698 148.064 28.6427 148.626 29.035V29.0267L148.634 29.035C150.297 30.165 152.141 30.0908 152.141 30.0908C152.46 30.0779 153.529 30.0908 154.743 29.5154C156.09 28.8775 156.857 27.9272 156.857 27.9272C157.346 27.3593 157.736 26.7122 158.008 26.0135C158.319 25.1965 158.423 24.2165 158.423 23.8249V16.7785C158.464 16.8035 159.019 17.1706 159.019 17.1706C159.019 17.1706 159.819 17.6831 161.066 18.0168C161.961 18.2543 163.167 18.3043 163.167 18.3043V14.8945C162.745 14.9403 161.887 14.807 161.008 14.3691Z" fill="white"/>
<rect x="135" y="0.591797" width="39" height="39" rx="19.5" stroke="white"/>
</svg>
