<svg width="14" height="14" viewBox="0 0 14 14" fill="none" xmlns="http://www.w3.org/2000/svg">
<path d="M6.10616 1.27256C6.50337 0.692983 7.3587 0.692984 7.75591 1.27256L9.52705 3.85687C9.65708 4.04661 9.84855 4.18571 10.0692 4.25075L13.0743 5.13661C13.7483 5.33528 14.0126 6.14874 13.5841 6.70561L11.6736 9.18867C11.5333 9.37096 11.4602 9.59604 11.4665 9.82597L11.5527 12.9578C11.572 13.6601 10.88 14.1629 10.218 13.9275L7.26608 12.8778C7.04936 12.8007 6.8127 12.8007 6.59599 12.8778L3.64407 13.9275C2.98206 14.1629 2.29009 13.6601 2.30941 12.9578L2.39554 9.82596C2.40187 9.59604 2.32873 9.37096 2.18847 9.18867L0.277952 6.70561C-0.150511 6.14874 0.113801 5.33528 0.787751 5.13661L3.7929 4.25075C4.01352 4.18571 4.20499 4.0466 4.33502 3.85687L6.10616 1.27256Z" fill="#FFC700"/>
</svg>
